<svg width="20" height="20" viewBox="0 0 20 20" fill="none" xmlns="http://www.w3.org/2000/svg">
<path fill-rule="evenodd" clip-rule="evenodd" d="M2.35355 1.64645C2.15829 1.45118 1.84171 1.45118 1.64645 1.64645C1.45118 1.84171 1.45118 2.15829 1.64645 2.35355L3.79023 4.49733C3.44482 4.82737 3.13525 5.17429 2.85942 5.52674C2.15936 6.42125 1.67439 7.35259 1.36333 8.13997C1.06019 8.90728 0.900024 9.59482 0.900024 9.99997C0.900024 10.4051 1.06019 11.0927 1.36333 11.86C1.67439 12.6473 2.15936 13.5787 2.85942 14.4732C4.26746 16.2724 6.55476 17.9276 10 17.9276C12.3072 17.9276 14.0951 17.1853 15.4474 16.1545L17.6465 18.3535C17.8417 18.5488 18.1583 18.5488 18.3536 18.3535C18.5488 18.1583 18.5488 17.8417 18.3536 17.6464L2.35355 1.64645ZM14.5903 15.2974L11.9086 12.6157C11.9052 12.6182 11.9018 12.6207 11.8984 12.6232L11.0325 11.7573C11.0362 11.7551 11.0399 11.7529 11.0436 11.7507L8.24914 8.95624C8.24693 8.95995 8.24473 8.96366 8.24253 8.96738L7.37663 8.10147C7.37911 8.09805 7.38161 8.09462 7.3841 8.0912L4.63871 5.34581C4.32925 5.63968 4.05199 5.94997 3.80442 6.26631C3.18551 7.05714 2.75454 7.88442 2.47939 8.58088C2.19632 9.2974 2.10002 9.81891 2.10002 9.99997C2.10002 10.181 2.19632 10.7025 2.47939 11.4191C2.75454 12.1155 3.18551 12.9428 3.80442 13.7336C5.03431 15.3052 6.99701 16.7276 10 16.7276C11.9343 16.7276 13.437 16.1374 14.5903 15.2974ZM9.69229 7.98511L8.7284 7.02123C9.11875 6.8544 9.54852 6.76205 9.99987 6.76205C11.7881 6.76205 13.2378 8.21172 13.2378 9.99998C13.2378 10.4513 13.1455 10.8811 12.9786 11.2714L12.0147 10.3076C12.0299 10.2072 12.0378 10.1045 12.0378 9.99998C12.0378 8.87446 11.1254 7.96205 9.99987 7.96205C9.89532 7.96205 9.7926 7.96992 9.69229 7.98511ZM15.8526 14.1454C15.9728 14.0099 16.0871 13.8723 16.1956 13.7336C16.8145 12.9428 17.2455 12.1155 17.5207 11.4191C17.8037 10.7025 17.9 10.181 17.9 9.99997C17.9 9.81891 17.8037 9.2974 17.5207 8.58088C17.2455 7.88442 16.8145 7.05714 16.1956 6.26631C14.9657 4.69479 13.003 3.27239 10 3.27239C8.38689 3.27239 7.07394 3.68283 6.01351 4.30634L5.14121 3.43404C6.41132 2.62289 8.01311 2.07239 10 2.07239C13.4453 2.07239 15.7326 3.72757 17.1406 5.52674C17.8407 6.42125 18.3257 7.35259 18.6367 8.13997C18.9399 8.90728 19.1 9.59482 19.1 9.99997C19.1 10.4051 18.9399 11.0927 18.6367 11.86C18.3257 12.6473 17.8407 13.5787 17.1406 14.4732C17.003 14.649 16.857 14.8235 16.7024 14.9952L15.8526 14.1454Z" fill="black"/>
</svg>
