<svg xmlns="http://www.w3.org/2000/svg" width="28" height="28" viewBox="0 0 28 28" fill="none">
  <path d="M22.6168 25.8996H3.74099C2.83449 25.8996 2.09961 25.1648 2.09961 24.2582V3.74099C2.09961 2.83447 2.83449 2.09961 3.74099 2.09961H17.6927C18.5992 2.09961 19.3341 2.83449 19.3341 3.74099V10.7169" fill="#2866D3"/>
  <path d="M23.0648 10.3065H19.3344V22.6168C19.3344 24.4299 20.8038 25.8996 22.6168 25.8996C24.4299 25.8996 25.8999 24.4299 25.8999 22.6168V13.1416C25.8999 11.5757 24.6307 10.3065 23.0648 10.3065Z" fill="#2866D3"/>
  <path d="M7.02332 8.66515C7.02332 7.75865 7.7582 7.02378 8.6647 7.02378H12.7681C13.6747 7.02378 14.4095 7.75865 14.4095 8.66515V11.1272C14.4095 12.0338 13.6747 12.7686 12.7681 12.7686H8.6647C7.7582 12.7686 7.02332 12.0338 7.02332 11.1272V8.66515Z" fill="#2866D3"/>
  <path d="M7.43405 16.8721H13.9996H7.43405Z" fill="#2866D3"/>
  <path d="M7.43405 20.9754H13.9996H7.43405Z" fill="#2866D3"/>
  <path d="M22.6169 25.8996H3.74099C2.83449 25.8996 2.09961 25.1648 2.09961 24.2582V3.74099C2.09961 2.83447 2.83449 2.09961 3.74099 2.09961H17.6927C18.5992 2.09961 19.3341 2.83449 19.3341 3.74099V10.7169M22.6169 25.8996C20.8038 25.8996 19.3344 24.4299 19.3344 22.6168V10.3065H23.0648C24.6307 10.3065 25.8999 11.5757 25.8999 13.1416V22.6168C25.8999 24.4299 24.4299 25.8996 22.6169 25.8996ZM7.43405 16.8721H13.9996M7.43405 20.9754H13.9996M7.02332 8.66515C7.02332 7.75865 7.7582 7.02378 8.6647 7.02378H12.7681C13.6747 7.02378 14.4095 7.75865 14.4095 8.66515V11.1272C14.4095 12.0338 13.6747 12.7686 12.7681 12.7686H8.6647C7.7582 12.7686 7.02332 12.0338 7.02332 11.1272V8.66515Z" stroke="#CCDFFF" stroke-width="1.68" stroke-linecap="round" stroke-linejoin="round"/>
</svg>