<svg xmlns="http://www.w3.org/2000/svg" width="28" height="29" viewBox="0 0 28 29" fill="none">
  <path d="M5.38238 24.8H22.6168C24.4299 24.8 25.8996 23.3303 25.8996 21.5172V9.20693L13.9996 1L2.09961 9.20693V21.5172C2.09961 23.3303 3.56937 24.8 5.38238 24.8Z" fill="#2866D3"/>
  <path d="M10.3056 19.0537C10.3056 17.2406 11.7754 15.7709 13.5883 15.7709H14.409C16.222 15.7709 17.6917 17.2406 17.6917 19.0537V24.7985H10.3056V19.0537Z" fill="#2866D3"/>
  <path d="M5.38238 24.8H22.6168C24.4299 24.8 25.8996 23.3303 25.8996 21.5172V9.20693L13.9996 1L2.09961 9.20693V21.5172C2.09961 23.3303 3.56937 24.8 5.38238 24.8Z" stroke="#CCDFFF" stroke-width="1.68" stroke-linecap="round" stroke-linejoin="round"/>
  <path d="M10.3056 19.0537C10.3056 17.2406 11.7754 15.7709 13.5883 15.7709H14.409C16.222 15.7709 17.6917 17.2406 17.6917 19.0537V24.7985H10.3056V19.0537Z" stroke="#CCDFFF" stroke-width="1.68" stroke-linecap="round" stroke-linejoin="round"/>
</svg>