<svg xmlns="http://www.w3.org/2000/svg" width="28" height="28" viewBox="0 0 28 28" fill="none">
  <path d="M14.0004 12.6969C17.1199 12.6969 19.6487 10.1681 19.6487 7.04867C19.6487 3.92921 17.1199 1.40039 14.0004 1.40039C10.8809 1.40039 8.35208 3.92921 8.35208 7.04867C8.35208 10.1681 10.8809 12.6969 14.0004 12.6969Z" fill="#2866D3"/>
  <path d="M5.04578 26.6004H22.9552C24.9398 26.6004 26.4685 24.8939 25.5418 23.1392C24.1784 20.5578 21.0704 17.4763 14.0005 17.4763C6.93059 17.4763 3.82256 20.5578 2.45927 23.1392C1.53248 24.8939 3.06119 26.6004 5.04578 26.6004Z" fill="#2866D3"/>
  <path d="M14.0004 12.6969C17.1199 12.6969 19.6487 10.1681 19.6487 7.04867C19.6487 3.92921 17.1199 1.40039 14.0004 1.40039C10.8809 1.40039 8.35208 3.92921 8.35208 7.04867C8.35208 10.1681 10.8809 12.6969 14.0004 12.6969Z" stroke="#CCDFFF" stroke-width="1.68" stroke-linecap="round" stroke-linejoin="round"/>
  <path d="M5.04578 26.6004H22.9552C24.9398 26.6004 26.4685 24.8939 25.5418 23.1392C24.1784 20.5578 21.0704 17.4763 14.0005 17.4763C6.93059 17.4763 3.82256 20.5578 2.45927 23.1392C1.53248 24.8939 3.06119 26.6004 5.04578 26.6004Z" stroke="#CCDFFF" stroke-width="1.68" stroke-linecap="round" stroke-linejoin="round"/>
</svg>