<svg width="20" height="20" viewBox="0 0 20 20" fill="none" xmlns="http://www.w3.org/2000/svg">
<path d="M8.69389 2.21178C8.83408 1.99346 9.02688 1.81385 9.25458 1.68946C9.48228 1.56507 9.73759 1.49988 9.99705 1.49988C10.2565 1.49988 10.5118 1.56507 10.7395 1.68946C10.9672 1.81385 11.16 1.99346 11.3002 2.21178L13.8404 6.22135L17.1531 6.63119C17.4278 6.66397 17.6885 6.77046 17.9076 6.93936C18.1267 7.10827 18.2961 7.3333 18.3977 7.59061C18.497 7.84659 18.5247 8.12479 18.4778 8.39532C18.4309 8.66585 18.3111 8.91849 18.1314 9.12607L15.3797 12.3046L16.2673 16.6787C16.3243 16.9636 16.298 17.2589 16.1915 17.5292C16.085 17.7996 15.9028 18.0334 15.6667 18.2028C15.4292 18.3745 15.1477 18.4752 14.8552 18.4932C14.5627 18.5113 14.271 18.4459 14.0142 18.3048L9.99705 16.1027L5.9837 18.3086C5.79199 18.414 5.58014 18.4775 5.3621 18.495C5.14406 18.5126 4.92477 18.4837 4.71868 18.4104C4.5126 18.3371 4.32438 18.2209 4.16644 18.0696C4.00849 17.9182 3.8844 17.7351 3.80233 17.5324C3.69539 17.2624 3.6685 16.9673 3.7249 16.6825L4.61255 12.3065L1.87026 9.13363C1.68927 8.92527 1.56881 8.67133 1.52194 8.39935C1.47508 8.12738 1.5036 7.84776 1.60442 7.59085C1.70524 7.33394 1.8745 7.10955 2.09383 6.94204C2.31316 6.77452 2.57418 6.67028 2.84857 6.64063L6.15368 6.22135L8.69389 2.21178Z" fill="#2866D3" stroke="#ECF3FF" stroke-width="1.2" stroke-linecap="round" stroke-linejoin="round"/>
</svg>
