<svg width="20" height="20" viewBox="0 0 20 20" fill="none" xmlns="http://www.w3.org/2000/svg">
<path d="M16.1552 10V7.65517C16.1552 4.25576 13.3994 1.5 10 1.5C6.6006 1.5 3.84483 4.25577 3.84483 7.65517V10L1.5 14.9828H18.5L16.1552 10Z" fill="#2866D3"/>
<path d="M6.48306 15.569C6.48306 15.569 6.48306 18.5 10.0003 18.5C13.5175 18.5 13.5175 15.569 13.5175 15.569" fill="#2866D3"/>
<path d="M6.48306 15.569C6.48306 15.569 6.48306 18.5 10.0003 18.5C13.5175 18.5 13.5175 15.569 13.5175 15.569M16.1552 10V7.65517C16.1552 4.25576 13.3994 1.5 10 1.5C6.6006 1.5 3.84483 4.25577 3.84483 7.65517V10L1.5 14.9828H18.5L16.1552 10Z" stroke="#ECF3FF" stroke-width="1.2" stroke-linecap="round" stroke-linejoin="round"/>
</svg>
