<svg width="20" height="20" viewBox="0 0 20 20" fill="none" xmlns="http://www.w3.org/2000/svg">
<path d="M16.1552 18.5H2.67241C2.02491 18.5 1.5 17.9751 1.5 17.3276V2.67241C1.5 2.0249 2.02491 1.5 2.67241 1.5H12.6379C13.2855 1.5 13.8103 2.02491 13.8103 2.67241V7.65517" fill="#2866D3"/>
<path d="M16.4751 7.36204H13.8106V16.1551C13.8106 17.4502 14.8601 18.5 16.1552 18.5C17.4502 18.5 18.5002 17.4502 18.5002 16.1551V9.38715C18.5002 8.26867 17.5936 7.36204 16.4751 7.36204Z" fill="#2866D3"/>
<path d="M5.01694 6.18968C5.01694 5.54217 5.54185 5.01726 6.18935 5.01726H9.12039C9.76791 5.01726 10.2928 5.54217 10.2928 6.18968V7.9483C10.2928 8.59582 9.76791 9.12071 9.12039 9.12071H6.18935C5.54185 9.12071 5.01694 8.59582 5.01694 7.9483V6.18968Z" fill="#2866D3"/>
<path d="M5.31032 12.0518H9.99997H5.31032Z" fill="#2866D3"/>
<path d="M5.31032 14.9827H9.99997H5.31032Z" fill="#2866D3"/>
<path d="M16.1552 18.5H2.67241C2.02491 18.5 1.5 17.9751 1.5 17.3276V2.67241C1.5 2.0249 2.02491 1.5 2.67241 1.5H12.6379C13.2855 1.5 13.8103 2.02491 13.8103 2.67241V7.65517M16.1552 18.5C14.8601 18.5 13.8106 17.4502 13.8106 16.1551V7.36204H16.4751C17.5936 7.36204 18.5002 8.26867 18.5002 9.38715V16.1551C18.5002 17.4502 17.4502 18.5 16.1552 18.5ZM5.31032 12.0518H9.99997M5.31032 14.9827H9.99997M5.01694 6.18968C5.01694 5.54217 5.54185 5.01726 6.18935 5.01726H9.12039C9.76791 5.01726 10.2928 5.54217 10.2928 6.18968V7.9483C10.2928 8.59582 9.76791 9.12071 9.12039 9.12071H6.18935C5.54185 9.12071 5.01694 8.59582 5.01694 7.9483V6.18968Z" stroke="#ECF3FF" stroke-width="1.2" stroke-linecap="round" stroke-linejoin="round"/>
</svg>
