<svg width="20" height="20" viewBox="0 0 20 20" fill="none" xmlns="http://www.w3.org/2000/svg">
<path d="M1.79968 0.809937H14.1917C14.6416 0.809845 15.0789 0.957707 15.4364 1.23073C15.7939 1.50375 16.0516 1.88678 16.1699 2.32076L18.1277 9.49565C18.2106 9.79977 18.2222 10.1189 18.1617 10.4283C18.1012 10.7376 17.9702 11.0289 17.7788 11.2794C17.5874 11.5298 17.3408 11.7328 17.0583 11.8725C16.7757 12.0122 16.4647 12.0848 16.1494 12.0848H9.48706V15.8567C9.48706 17.6976 7.99468 19.1899 6.15586 19.1899C6.00585 19.1899 5.85864 19.1493 5.72982 19.0724C5.60099 18.9955 5.49534 18.8853 5.42402 18.7533L1.79968 12.0848" fill="#2866D3"/>
<path d="M1.79968 0.809937H14.1917C14.6416 0.809845 15.0789 0.957707 15.4364 1.23073C15.7939 1.50375 16.0516 1.88678 16.1699 2.32076L18.1277 9.49565C18.2106 9.79977 18.2222 10.1189 18.1617 10.4283C18.1012 10.7376 17.9702 11.0289 17.7788 11.2794C17.5874 11.5298 17.3408 11.7328 17.0583 11.8725C16.7757 12.0122 16.4647 12.0848 16.1494 12.0848H9.48706V15.8567C9.48706 17.6976 7.99468 19.1899 6.15586 19.1899C6.00585 19.1899 5.85864 19.1493 5.72982 19.0724C5.60099 18.9955 5.49533 18.8853 5.42402 18.7533L1.79968 12.0848" stroke="#ECF3FF" stroke-width="1.2" stroke-linecap="round" stroke-linejoin="round"/>
</svg>
