<svg xmlns="http://www.w3.org/2000/svg" width="current" height="current" viewBox="0 0 28 28" fill="none">
  <path d="M4.23621 4.31637C4.31936 3.19069 4.98771 2.23761 6.08568 1.97871C7.5049 1.64358 9.96792 1.28516 14.0007 1.28516C18.0335 1.28516 20.4965 1.64421 21.9157 1.97808C23.0137 2.23761 23.6821 3.19069 23.7652 4.31637C23.9038 6.18788 24.0795 9.6424 24.0795 15.1436C24.0795 19.519 24.0153 22.3789 23.934 24.2466C23.8477 26.229 22.3132 26.8986 20.6546 25.8089L16.0744 22.8041C15.4584 22.3998 14.7376 22.1844 14.0007 22.1844C13.2638 22.1844 12.543 22.3998 11.927 22.8041L7.34742 25.8089C5.68819 26.8986 4.15369 26.229 4.06739 24.2466C3.9855 22.3789 3.92188 19.519 3.92188 15.1436C3.92188 9.6424 4.09699 6.18788 4.23621 4.31637Z" fill="#2866D3" stroke="current" stroke-width="1.68" stroke-linecap="round" stroke-linejoin="round"/>
</svg>