<svg width="20" height="20" viewBox="0 0 20 20" fill="none" xmlns="http://www.w3.org/2000/svg">
<path d="M1.79785 19.1913H14.193C14.643 19.1914 15.0804 19.0435 15.438 18.7704C15.7956 18.4973 16.0534 18.1142 16.1718 17.6801L18.13 10.5034C18.2129 10.1992 18.2245 9.87997 18.164 9.57053C18.1035 9.26109 17.9724 8.96978 17.781 8.71923C17.5896 8.46869 17.3429 8.26567 17.0603 8.12595C16.7776 7.98623 16.4665 7.91358 16.1512 7.91365H9.48717V4.14075C9.48717 2.30147 7.99442 0.808716 6.15513 0.808716C6.00529 0.808587 5.85819 0.848904 5.72935 0.925414C5.60051 1.00192 5.49471 1.11179 5.42311 1.24342L1.79785 7.91365" fill="#2866D3"/>
<path d="M1.79785 19.1913H14.193C14.643 19.1914 15.0804 19.0435 15.438 18.7704C15.7956 18.4973 16.0534 18.1142 16.1718 17.6801L18.13 10.5034C18.2129 10.1992 18.2245 9.87997 18.164 9.57053C18.1035 9.26109 17.9724 8.96978 17.781 8.71923C17.5896 8.46869 17.3429 8.26567 17.0603 8.12595C16.7776 7.98623 16.4665 7.91358 16.1512 7.91365H9.48717V4.14075C9.48717 2.30147 7.99442 0.808716 6.15513 0.808716C6.00529 0.808587 5.85819 0.848904 5.72935 0.925414C5.60051 1.00192 5.49471 1.11179 5.42311 1.24342L1.79785 7.91365" stroke="#ECF3FF" stroke-width="1.2" stroke-linecap="round" stroke-linejoin="round"/>
</svg>
