<svg width="24" height="24" viewBox="0 0 24 24" fill="none" xmlns="http://www.w3.org/2000/svg">
<g id="Vector">
<path fill-rule="evenodd" clip-rule="evenodd" d="M12 17.25C14.8995 17.25 17.25 14.8995 17.25 12C17.25 9.1005 14.8995 6.75 12 6.75C9.1005 6.75 6.75 9.1005 6.75 12C6.75 14.8995 9.1005 17.25 12 17.25ZM12 15.75C14.0711 15.75 15.75 14.0711 15.75 12C15.75 9.92893 14.0711 8.25 12 8.25C9.92893 8.25 8.25 9.92893 8.25 12C8.25 14.0711 9.92893 15.75 12 15.75Z" fill="#666666"/>
<path d="M18.75 6.75C19.1642 6.75 19.5 6.41421 19.5 6C19.5 5.58579 19.1642 5.25 18.75 5.25C18.3358 5.25 18 5.58579 18 6C18 6.41421 18.3358 6.75 18.75 6.75Z" fill="#666666"/>
<path fill-rule="evenodd" clip-rule="evenodd" d="M6.75 0C3.02208 0 0 3.02208 0 6.75V17.25C0 20.9779 3.02208 24 6.75 24H17.25C20.9779 24 24 20.9779 24 17.25V6.75C24 3.02208 20.9779 0 17.25 0H6.75ZM17.25 1.5H6.75C3.85051 1.5 1.5 3.85051 1.5 6.75V17.25C1.5 20.1495 3.85051 22.5 6.75 22.5H17.25C20.1495 22.5 22.5 20.1495 22.5 17.25V6.75C22.5 3.85051 20.1495 1.5 17.25 1.5Z" fill="#666666"/>
</g>
</svg>
