<svg width="28" height="24" viewBox="0 0 28 24" fill="none" xmlns="http://www.w3.org/2000/svg">
<g id="Vector">
<path d="M16.9443 0.778777C16.5457 0.548658 16.0361 0.685221 15.806 1.0838L13.9323 4.329L12.0587 1.08384C11.8286 0.685262 11.319 0.548699 10.9204 0.778818C10.5218 1.00894 10.3852 1.51859 10.6154 1.91717L12.9701 5.99567L6.69414 16.8659H1.49935C1.03911 16.8659 0.666016 17.239 0.666016 17.6993C0.666016 18.1595 1.03911 18.5326 1.49935 18.5326H18.8986L17.9363 16.8659H8.61864L17.2493 1.91713C17.4795 1.51855 17.3429 1.0089 16.9443 0.778777Z" fill="#666666"/>
<path d="M7.00207 19.6659H5.07757L3.30596 22.7344C3.07584 23.133 3.2124 23.6427 3.61098 23.8728C4.00956 24.1029 4.51921 23.9663 4.74933 23.5678L7.00207 19.6659Z" fill="#666666"/>
<path d="M22.1328 18.5326H26.4993C26.9596 18.5326 27.3327 18.1595 27.3327 17.6993C27.3327 17.239 26.9596 16.8659 26.4993 16.8659H21.1705L15.548 7.12744L14.5858 8.79411L23.1154 23.5678C23.3455 23.9664 23.8551 24.1029 24.2537 23.8728C24.6523 23.6427 24.7889 23.1331 24.5587 22.7345L22.1328 18.5326Z" fill="#666666"/>
</g>
</svg>
