<svg width="20" height="20" viewBox="0 0 20 20" fill="none" xmlns="http://www.w3.org/2000/svg">
<path d="M1.24854 4.86049H18.7512M6.30923 4.85227V4.38073C6.30923 3.41356 6.69344 2.486 7.37733 1.80211C8.06122 1.11822 8.98878 0.734009 9.95595 0.734009C10.9231 0.734009 11.8507 1.11822 12.5346 1.80211C13.2185 2.486 13.6027 3.41356 13.6027 4.38073V4.85227M14.6383 19.266H5.37216C4.82605 19.266 4.3023 19.0491 3.91614 18.6629C3.52997 18.2768 3.31303 17.753 3.31303 17.2069V4.85211H16.6974V17.2069C16.6974 17.753 16.4804 18.2768 16.0943 18.6629C15.7081 19.0491 15.1844 19.266 14.6383 19.266Z" stroke="black" stroke-width="1.2" stroke-linecap="round" stroke-linejoin="round"/>
</svg>
