<svg width="current" height="current" viewBox="0 0 20 20" fill="none" xmlns="http://www.w3.org/2000/svg">
<path d="M3.02531 3.08324C3.0847 2.27918 3.56209 1.59841 4.34635 1.41348C5.36009 1.17411 7.11938 0.918091 9.99995 0.918091C12.8805 0.918091 14.6398 1.17456 15.6535 1.41303C16.4378 1.59841 16.9152 2.27918 16.9746 3.08324C17.0736 4.42004 17.1991 6.88755 17.1991 10.8169C17.1991 13.9423 17.1532 15.9851 17.0952 17.3191C17.0335 18.7351 15.9375 19.2134 14.7528 18.435L11.4812 16.2888C11.0411 16 10.5263 15.8461 9.99995 15.8461C9.47361 15.8461 8.95876 16 8.51872 16.2888L5.2476 18.435C4.06244 19.2134 2.96636 18.7351 2.90472 17.3191C2.84623 15.9851 2.80078 13.9423 2.80078 10.8169C2.80078 6.88755 2.92587 4.42004 3.02531 3.08324Z" stroke="black" stroke-width="1.2" stroke-linecap="round" stroke-linejoin="round"/>
</svg>
