<svg width="20" height="20" viewBox="0 0 20 20" fill="none" xmlns="http://www.w3.org/2000/svg">
<path d="M10 18.5C14.6944 18.5 18.5 14.6944 18.5 10C18.5 5.30558 14.6944 1.5 10 1.5M10 18.5C5.30558 18.5 1.5 14.6944 1.5 10C1.5 5.30558 5.30558 1.5 10 1.5M10 18.5C11.4568 18.5 13.8106 15.2759 13.8106 10C13.8106 4.72414 11.4568 1.5 10 1.5M10 18.5C8.54316 18.5 6.18994 15.2759 6.18994 10C6.18994 4.72414 8.54316 1.5 10 1.5M1.7926 10H18.2064" stroke="#19213D" stroke-width="1.2" stroke-linecap="round" stroke-linejoin="round"/>
</svg>
