<svg width="20" height="20" viewBox="0 0 20 20" fill="none" xmlns="http://www.w3.org/2000/svg">
<path d="M6.62309 6.15695C6.46699 6.44925 6.5774 6.81275 6.8697 6.96885C7.16201 7.12494 7.52551 7.01453 7.6816 6.72223L6.62309 6.15695ZM11.1947 10.561L11.467 11.0957L11.4671 11.0956L11.1947 10.561ZM9.22282 12.3131C9.22282 12.6444 9.49145 12.9131 9.82282 12.9131C10.1542 12.9131 10.4228 12.6444 10.4228 12.3131H9.22282ZM10.4228 14.9828C10.4228 14.6515 10.1542 14.3828 9.82282 14.3828C9.49145 14.3828 9.22282 14.6515 9.22282 14.9828H10.4228ZM9.22282 15.1608C9.22282 15.4922 9.49145 15.7608 9.82282 15.7608C10.1542 15.7608 10.4228 15.4922 10.4228 15.1608H9.22282ZM7.6816 6.72223C7.861 6.38629 8.11699 6.09731 8.42883 5.87868L7.73996 4.8961C7.27385 5.22288 6.89124 5.65482 6.62309 6.15695L7.6816 6.72223ZM8.42883 5.87868C8.74067 5.66006 9.0996 5.51793 9.47658 5.4638L9.30603 4.27598C8.74256 4.35688 8.20606 4.56932 7.73996 4.8961L8.42883 5.87868ZM9.47658 5.4638C9.85356 5.40967 10.238 5.44506 10.5987 5.56712L10.9833 4.43041C10.4441 4.24798 9.86949 4.19507 9.30603 4.27598L9.47658 5.4638ZM10.5987 5.56712C10.9595 5.68917 11.2864 5.89445 11.5531 6.16634L12.4098 5.32606C12.0112 4.91967 11.5225 4.61284 10.9833 4.43041L10.5987 5.56712ZM11.5531 6.16634C11.8198 6.43823 12.0187 6.76909 12.1338 7.13214L13.2777 6.76964C13.1057 6.22699 12.8084 5.73246 12.4098 5.32606L11.5531 6.16634ZM12.1338 7.13214C12.2488 7.49519 12.2767 7.88023 12.2153 8.25609L13.3996 8.4496C13.4914 7.88781 13.4496 7.31229 13.2777 6.76964L12.1338 7.13214ZM12.2153 8.25609C12.1539 8.63195 12.0049 8.98806 11.7802 9.29561L12.7493 10.0034C13.085 9.54368 13.3078 9.0114 13.3996 8.4496L12.2153 8.25609ZM11.7802 9.29561C11.5556 9.60316 11.2617 9.8535 10.9224 10.0264L11.4671 11.0956C11.9743 10.8372 12.4136 10.4631 12.7493 10.0034L11.7802 9.29561ZM10.9225 10.0263C10.1751 10.4068 9.22282 11.1684 9.22282 12.3131H10.4228C10.4228 11.8844 10.8132 11.4285 11.467 11.0957L10.9225 10.0263ZM9.22282 14.9828V15.1608H10.4228V14.9828H9.22282ZM18.65 10C18.65 14.7773 14.7773 18.65 10 18.65V19.85C15.44 19.85 19.85 15.44 19.85 10H18.65ZM10 18.65C5.22274 18.65 1.35 14.7773 1.35 10H0.15C0.15 15.44 4.56 19.85 10 19.85V18.65ZM1.35 10C1.35 5.22274 5.22274 1.35 10 1.35V0.15C4.56 0.15 0.15 4.56 0.15 10H1.35ZM10 1.35C14.7773 1.35 18.65 5.22274 18.65 10H19.85C19.85 4.56 15.44 0.15 10 0.15V1.35Z" fill="black"/>
</svg>
