<svg width="20" height="20" viewBox="0 0 20 20" fill="none" xmlns="http://www.w3.org/2000/svg">
<path d="M7.47805 3.22539L8.09617 1.63475C8.20108 1.36645 8.3848 1.13621 8.62314 0.974378C8.86147 0.812545 9.14324 0.726706 9.43132 0.728168H10.5893C10.8763 0.727954 11.1567 0.814375 11.3938 0.976127C11.6309 1.13788 11.8137 1.36743 11.9182 1.63475L12.5364 3.22539L14.5968 4.42044L16.2863 4.16494C16.5688 4.12325 16.8574 4.16734 17.1145 4.29151C17.3717 4.41567 17.5856 4.6142 17.7286 4.86137L18.3097 5.86685C18.4527 6.11536 18.5176 6.40117 18.4959 6.68709C18.4742 6.973 18.367 7.24576 18.1881 7.46985L17.1229 8.805V11.1951L18.1881 12.5302C18.367 12.7543 18.4742 13.0271 18.4959 13.313C18.5176 13.5989 18.4527 13.8847 18.3097 14.1332L17.7286 15.1387C17.5856 15.3859 17.3717 15.5844 17.1145 15.7086C16.8574 15.8328 16.5688 15.8769 16.2863 15.8352L14.5968 15.5797L12.5364 16.7747L11.9182 18.3653C11.8137 18.6327 11.6309 18.8622 11.3938 19.024C11.1567 19.1857 10.8763 19.2721 10.5893 19.2719H9.43132C9.14429 19.2721 8.86388 19.1857 8.62677 19.024C8.38965 18.8622 8.20688 18.6327 8.10236 18.3653L7.48423 16.7747L5.42381 15.5797L3.73427 15.8352C3.45177 15.8769 3.16325 15.8328 2.9061 15.7086C2.64894 15.5844 2.435 15.3859 2.29198 15.1387L1.69034 14.1332C1.54731 13.8847 1.48241 13.5989 1.50409 13.313C1.52577 13.0271 1.63303 12.7543 1.8119 12.5302L2.87714 11.1951V8.805L1.8119 7.46985C1.63303 7.24576 1.52577 6.973 1.50409 6.68709C1.48241 6.40117 1.54731 6.11536 1.69034 5.86685L2.27137 4.86137C2.4144 4.6142 2.62834 4.41567 2.88549 4.29151C3.14265 4.16734 3.43116 4.12325 3.71367 4.16494L5.40321 4.42044L7.47805 3.22539ZM7.43478 10C7.43478 10.6831 7.70613 11.3382 8.18913 11.8212C8.67214 12.3042 9.32723 12.5756 10.0103 12.5756C10.6934 12.5756 11.3485 12.3042 11.8315 11.8212C12.3145 11.3382 12.5858 10.6831 12.5858 10C12.5858 9.31698 12.3145 8.66188 11.8315 8.17888C11.3485 7.69587 10.6934 7.42453 10.0103 7.42453C9.32723 7.42453 8.67214 7.69587 8.18913 8.17888C7.70613 8.66188 7.43478 9.31698 7.43478 10Z" stroke="black" stroke-width="1.2" stroke-linecap="round"/>
</svg>
