<svg width="20" height="20" viewBox="0 0 20 20" fill="none" xmlns="http://www.w3.org/2000/svg">
<path d="M10 2.94428C9.7327 2.94428 9.47632 2.83808 9.28729 2.64905C9.09826 2.46002 8.99207 2.20364 8.99207 1.93631C8.99207 1.66898 9.09826 1.4126 9.28729 1.22357C9.47632 1.03454 9.7327 0.928345 10 0.928345" stroke="black" stroke-width="1.2" stroke-linecap="round" stroke-linejoin="round"/>
<path d="M10.0004 2.94428C10.2677 2.94428 10.5241 2.83808 10.7131 2.64905C10.9021 2.46002 11.0083 2.20364 11.0083 1.93631C11.0083 1.66898 10.9021 1.4126 10.7131 1.22357C10.5241 1.03454 10.2677 0.928345 10.0004 0.928345" stroke="black" stroke-width="1.2" stroke-linecap="round" stroke-linejoin="round"/>
<path d="M10.0002 19.0717C9.73282 19.0717 9.47644 18.9655 9.28741 18.7765C9.09838 18.5875 8.99219 18.3311 8.99219 18.0638C8.99219 17.7964 9.09838 17.54 9.28741 17.351C9.47644 17.162 9.73282 17.0558 10.0002 17.0558" stroke="black" stroke-width="1.2" stroke-linecap="round" stroke-linejoin="round"/>
<path d="M10.0004 19.0717C10.2677 19.0717 10.5241 18.9655 10.7131 18.7765C10.9021 18.5875 11.0083 18.3311 11.0083 18.0638C11.0083 17.7964 10.9021 17.54 10.7131 17.351C10.5241 17.162 10.2677 17.0558 10.0004 17.0558" stroke="black" stroke-width="1.2" stroke-linecap="round" stroke-linejoin="round"/>
<path d="M10.0002 11.008C9.73282 11.008 9.47644 10.9018 9.28741 10.7128C9.09838 10.5237 8.99219 10.2674 8.99219 10C8.99219 9.7327 9.09838 9.47632 9.28741 9.28729C9.47644 9.09826 9.73282 8.99207 10.0002 8.99207" stroke="black" stroke-width="1.2" stroke-linecap="round" stroke-linejoin="round"/>
<path d="M10.0004 11.008C10.2677 11.008 10.5241 10.9018 10.7131 10.7128C10.9021 10.5237 11.0083 10.2674 11.0083 10C11.0083 9.7327 10.9021 9.47632 10.7131 9.28729C10.5241 9.09826 10.2677 8.99207 10.0004 8.99207" stroke="black" stroke-width="1.2" stroke-linecap="round" stroke-linejoin="round"/>
</svg>
