<svg width="20" height="20" viewBox="0 0 20 20" fill="none" xmlns="http://www.w3.org/2000/svg">
<path d="M4.72413 8.13793V7.94266C4.72413 6.00458 4.60753 3.84431 5.96111 2.45726C6.73304 1.66625 7.98213 1 9.99999 1C12.0179 1 13.2669 1.66625 14.0388 2.45726C15.3924 3.84431 15.2759 6.00458 15.2759 7.94266V8.13793M2.24121 9.68966C2.24121 9.00405 2.797 8.44828 3.48259 8.44828H16.5171C17.2027 8.44828 17.7585 9.00405 17.7585 9.68966V16.5172C17.7585 17.8885 16.6469 19 15.2757 19H4.72397C3.35278 19 2.24121 17.8885 2.24121 16.5172V9.68966Z" stroke="black" stroke-width="1.2" stroke-linecap="round" stroke-linejoin="round"/>
</svg>
