<svg width="20" height="20" viewBox="0 0 20 20" fill="none" xmlns="http://www.w3.org/2000/svg">
<path d="M8.69401 2.21178C8.8342 1.99346 9.027 1.81385 9.2547 1.68946C9.4824 1.56507 9.73771 1.49988 9.99717 1.49988C10.2566 1.49988 10.5119 1.56507 10.7396 1.68946C10.9673 1.81385 11.1601 1.99346 11.3003 2.21178L13.8405 6.22135L17.1532 6.63119C17.4279 6.66397 17.6886 6.77046 17.9077 6.93936C18.1268 7.10827 18.2962 7.3333 18.3978 7.59061C18.4971 7.84659 18.5248 8.12479 18.4779 8.39532C18.431 8.66585 18.3112 8.91849 18.1315 9.12607L15.3798 12.3046L16.2674 16.6787C16.3245 16.9636 16.2982 17.2589 16.1916 17.5292C16.0851 17.7996 15.9029 18.0334 15.6668 18.2028C15.4293 18.3745 15.1479 18.4752 14.8553 18.4932C14.5628 18.5113 14.2712 18.4459 14.0143 18.3048L9.99717 16.1027L5.98382 18.3086C5.79211 18.414 5.58026 18.4775 5.36222 18.495C5.14418 18.5126 4.92489 18.4837 4.71881 18.4104C4.51272 18.3371 4.32451 18.2209 4.16656 18.0696C4.00861 17.9182 3.88452 17.7351 3.80245 17.5324C3.69551 17.2624 3.66862 16.9673 3.72502 16.6825L4.61268 12.3065L1.87038 9.13363C1.68939 8.92527 1.56893 8.67133 1.52207 8.39935C1.4752 8.12738 1.50373 7.84776 1.60454 7.59085C1.70536 7.33394 1.87462 7.10955 2.09395 6.94204C2.31328 6.77452 2.57431 6.67028 2.84869 6.64063L6.1538 6.22135L8.69401 2.21178Z" stroke="black" stroke-width="1.2" stroke-linecap="round" stroke-linejoin="round"/>
</svg>
