<svg width="18" height="16" viewBox="0 0 18 16" fill="none" xmlns="http://www.w3.org/2000/svg">
<g id="_&#235;&#160;&#136;&#236;&#157;&#180;&#236;&#150;&#180;_1-2">
<path id="Vector" d="M13.4146 0.740234H6.18462C5.73891 0.740234 5.37891 1.10023 5.37891 1.54595V11.1888H16.6289V3.95452C16.6289 2.18023 15.1889 0.740234 13.4146 0.740234Z" fill="#333333"/>
<path id="Vector_2" d="M17.2029 11.7589H4.80859V1.54173C4.80859 0.783158 5.42574 0.166016 6.18431 0.166016H13.4186C15.5057 0.166016 17.2072 1.86316 17.2072 3.95459V11.7589H17.2029ZM5.95288 10.6146H16.0586V3.95459C16.0586 2.49744 14.8715 1.31459 13.4186 1.31459H6.18431C6.05574 1.31459 5.95288 1.41744 5.95288 1.54602V10.6189V10.6146Z" fill="#C0C0C0"/>
<path id="Vector_3" d="M1.36328 4.75595C1.36328 2.53595 3.159 0.740234 5.379 0.740234C7.599 0.740234 9.399 2.54023 9.399 4.76023V11.1888H1.36328V4.76023V4.75595Z" fill="#191919"/>
<path id="Vector_4" d="M9.96906 11.7589H0.789062V4.75602C0.789062 2.22744 2.85049 0.166016 5.37906 0.166016C7.90763 0.166016 9.96906 2.22744 9.96906 4.75602V11.7589ZM1.93335 10.6146H8.82478V4.75602C8.82478 2.85744 7.27763 1.3103 5.37906 1.3103C3.48049 1.3103 1.93335 2.85744 1.93335 4.75602V10.6146Z" fill="#C0C0C0"/>
<path id="Vector_5" d="M13.4145 5.32991C13.3288 5.32991 13.2431 5.30849 13.1573 5.26991C12.8745 5.12849 12.7588 4.78563 12.9002 4.50277L13.7059 2.89563C13.8473 2.61277 14.1902 2.49706 14.4731 2.63849C14.7559 2.77991 14.8716 3.12277 14.7302 3.40563L13.9245 5.01277C13.8259 5.2142 13.6202 5.32991 13.4102 5.32991H13.4145Z" fill="white"/>
<path id="Vector_6" d="M9.16797 11.7588H9.63083V15.4359H9.16797V11.7588Z" fill="#C0C0C0"/>
<path id="Vector_7" d="M10.0299 11.3564H8.76562V15.835H10.0299V11.3564Z" fill="#C0C0C0"/>
</g>
</svg>
