<svg width="156" height="28" viewBox="0 0 156 28" fill="none" xmlns="http://www.w3.org/2000/svg">
<g id="_&#235;&#160;&#136;&#236;&#157;&#180;&#236;&#150;&#180;_1-2">
<path id="Vector" d="M34.7246 21.4879V11.8654C34.7246 6.10539 38.0471 3.52539 43.4021 3.52539C48.7571 3.52539 52.0796 5.93289 52.0796 11.6929V21.4879H48.2471V11.6929C48.2471 8.30289 46.4546 6.78039 43.4021 6.78039C40.3496 6.78039 38.5571 8.43789 38.5571 11.8654V21.4879H34.7321H34.7246Z" fill="black"/>
<path id="Vector_2" d="M53.9258 12.7497C53.9258 6.61473 57.7883 3.53223 63.0383 3.53223C68.2883 3.53223 71.6483 6.85473 71.6483 12.4122C71.6483 12.7872 71.6108 13.3947 71.5508 13.7697H57.7583C58.0283 17.1597 60.1958 19.0197 63.0083 19.0197C64.7408 19.0197 66.3608 18.2397 67.1408 16.8147H70.9358C69.9158 20.0322 66.8708 21.9672 63.0383 21.9672C57.4133 21.9672 53.9258 18.4797 53.9258 12.7497ZM67.7183 11.0847C67.4108 8.10723 65.3783 6.44223 62.8733 6.44223C60.3683 6.44223 58.2608 8.06973 57.8558 11.0847H67.7183Z" fill="black"/>
<path id="Vector_3" d="M76.7919 21.4874L70.8594 4.00488H75.0294L78.8544 16.7474H79.1619L82.9944 4.00488H87.3294L91.1544 16.7474H91.4919L95.2869 4.00488H99.2844L93.3894 21.4874H89.0844L85.2219 9.14988H84.9144L81.0819 21.4874H76.7769H76.7919Z" fill="black"/>
<path id="Vector_4" d="M98.498 12.75C98.498 6.6825 102.196 3.5325 106.628 3.5325C109.238 3.5325 111.241 4.38 112.696 6.45H113.033V0H116.858V21.4875H113.371L113.033 18.9825H112.696C111.271 21.045 109.276 21.96 106.628 21.96C102.188 21.96 98.498 18.84 98.498 12.7425V12.75ZM113.138 12.75C113.138 8.85 110.903 6.72 107.753 6.72C104.603 6.72 102.436 8.82 102.436 12.75C102.436 16.68 104.641 18.78 107.753 18.78C110.866 18.78 113.138 16.6125 113.138 12.75Z" fill="black"/>
<path id="Vector_5" d="M118.717 12.7497C118.717 6.50973 122.647 3.53223 128.069 3.53223C133.492 3.53223 137.422 6.50973 137.422 12.7497C137.422 18.9897 133.522 21.9672 128.069 21.9672C122.617 21.9672 118.717 18.9897 118.717 12.7497ZM133.522 12.7497C133.522 8.61723 131.287 6.61473 128.069 6.61473C124.852 6.61473 122.647 8.61723 122.647 12.7497C122.647 16.8822 124.852 18.8472 128.099 18.8472C131.347 18.8472 133.522 16.8822 133.522 12.7497Z" fill="black"/>
<path id="Vector_6" d="M139.275 21.4875V0H143.1V11.085H143.438L150.72 4.005H155.535L147.128 12.0375L155.633 21.495H150.683L143.43 13.4625H143.093V21.495H139.268L139.275 21.4875Z" fill="black"/>
<path id="Vector_7" d="M22.0957 1.00488H9.4432C8.6632 1.00488 8.0332 1.63488 8.0332 2.41488V19.2899H27.7207V6.62988C27.7207 3.52488 25.2007 1.00488 22.0957 1.00488Z" fill="#333333"/>
<path id="Vector_8" d="M28.7252 20.2875H7.03516V2.4075C7.03516 1.08 8.11516 0 9.44266 0H22.1027C25.7552 0 28.7327 2.97 28.7327 6.63V20.2875H28.7252ZM9.03766 18.285H26.7227V6.63C26.7227 4.08 24.6452 2.01 22.1027 2.01H9.44266C9.21766 2.01 9.03766 2.19 9.03766 2.415V18.2925V18.285Z" fill="#C0C0C0"/>
<path id="Vector_9" d="M1.00586 8.03238C1.00586 4.14738 4.14836 1.00488 8.03336 1.00488C11.9184 1.00488 15.0684 4.15488 15.0684 8.03988V19.2899H1.00586V8.03988V8.03238Z" fill="#191919"/>
<path id="Vector_10" d="M16.065 20.2875H0V8.0325C0 3.6075 3.6075 0 8.0325 0C12.4575 0 16.065 3.6075 16.065 8.0325V20.2875ZM2.0025 18.285H14.0625V8.0325C14.0625 4.71 11.355 2.0025 8.0325 2.0025C4.71 2.0025 2.0025 4.71 2.0025 8.0325V18.285Z" fill="#C0C0C0"/>
<path id="Vector_11" d="M22.0955 9.03731C21.9455 9.03731 21.7955 8.99981 21.6455 8.93231C21.1505 8.68481 20.948 8.08481 21.1955 7.58981L22.6055 4.77731C22.853 4.28231 23.453 4.07981 23.948 4.32731C24.443 4.57481 24.6455 5.17481 24.398 5.66981L22.988 8.48231C22.8155 8.83481 22.4555 9.03731 22.088 9.03731H22.0955Z" fill="white"/>
<path id="Vector_12" d="M14.6621 20.2871H15.4721V26.7221H14.6621V20.2871Z" fill="#C0C0C0"/>
<path id="Vector_13" d="M16.1695 19.582H13.957V27.4195H16.1695V19.582Z" fill="#C0C0C0"/>
</g>
</svg>
