<svg width="24" height="24" viewBox="0 0 24 24" fill="none" xmlns="http://www.w3.org/2000/svg">
<path d="M12 21C13.6569 21 15 19.6569 15 18C15 16.3431 13.6569 15 12 15C10.3431 15 9 16.3431 9 18C9 19.6569 10.3431 21 12 21Z" fill="white"/>
<path d="M12 22C9.79 22 8 20.21 8 18C8 15.79 9.79 14 12 14C14.21 14 16 15.79 16 18C16 20.21 14.21 22 12 22ZM12 16C10.9 16 10 16.9 10 18C10 19.1 10.9 20 12 20C13.1 20 14 19.1 14 18C14 16.9 13.1 16 12 16Z" fill="#674188"/>
<path d="M12 5C15.86 5 19 8.14 19 12V17H5V12C5 8.14 8.14 5 12 5Z" fill="#D8C4E1"/>
<path d="M14 4.26V4C14 2.9 13.1 2 12 2C10.9 2 10 2.9 10 4V4.26C6.56 5.15 4 8.28 4 12V17C4 17.55 4.45 18 5 18H19C19.55 18 20 17.55 20 17V12C20 8.28 17.44 5.15 14 4.26ZM18 16H6V12C6 8.69 8.69 6 12 6C15.31 6 18 8.69 18 12V16Z" fill="#674188"/>
</svg>
