<svg width="current" height="current" viewBox="0 0 24 24" fill="none" xmlns="http://www.w3.org/2000/svg">
<path d="M7.65984 4.24994C7.27984 3.91994 6.71984 3.91994 6.33984 4.24994L2.33984 7.74994C1.91984 8.10994 1.87984 8.74994 2.24984 9.15994C2.61984 9.57994 3.24984 9.61994 3.65984 9.24994L5.99984 7.19994V18.9999C5.99984 19.5499 6.44984 19.9999 6.99984 19.9999C7.54984 19.9999 7.99984 19.5499 7.99984 18.9999V7.19994L10.3398 9.24994C10.5298 9.41994 10.7598 9.49994 10.9998 9.49994C11.2798 9.49994 11.5498 9.37994 11.7498 9.15994C12.1098 8.73994 12.0698 8.10994 11.6598 7.74994L7.65984 4.24994Z" fill="current"/>
<path d="M21.7502 14.84C21.3802 14.42 20.7502 14.38 20.3402 14.75L18.0002 16.8V5C18.0002 4.45 17.5502 4 17.0002 4C16.4502 4 16.0002 4.45 16.0002 5V16.8L13.6602 14.75C13.2402 14.39 12.6102 14.43 12.2502 14.84C11.8902 15.26 11.9302 15.89 12.3402 16.25L16.3402 19.75C16.3402 19.75 16.4502 19.81 16.5002 19.85C16.5402 19.88 16.5802 19.91 16.6302 19.93C16.7502 19.98 16.8702 20 17.0002 20C17.1302 20 17.2502 19.97 17.3702 19.93C17.4202 19.91 17.4602 19.88 17.5002 19.85C17.5502 19.82 17.6102 19.8 17.6602 19.75L21.6602 16.25C22.0802 15.89 22.1202 15.25 21.7502 14.84Z" fill="current"/>
</svg>
