<svg width="24" height="24" viewBox="0 0 24 24" fill="none" xmlns="http://www.w3.org/2000/svg">
<path d="M20.9999 10.0001H19.9999V5.00006C19.9999 4.45006 19.5499 4.00006 18.9999 4.00006H14.1599L13.9599 3.06006C13.8399 2.52006 13.3099 2.18006 12.7699 2.29006L4.94987 3.95006C4.40987 4.07006 4.06987 4.60006 4.17987 5.14006L5.20987 10.0001H2.99987C2.65987 10.0001 2.33987 10.1701 2.15987 10.4601C1.97987 10.7501 1.94987 11.1001 2.08987 11.4101L6.58987 21.4101C6.74987 21.7701 7.10987 22.0001 7.49987 22.0001H20.9999C21.5499 22.0001 21.9999 21.5501 21.9999 21.0001V11.0001C21.9999 10.4501 21.5499 10.0001 20.9999 10.0001ZM10.0199 4.92005L12.2099 4.45006L13.3899 10.0001H7.25987L6.34987 5.70006L10.0299 4.92005H10.0199ZM19.9999 14.0001V20.0001H8.14987L4.54987 12.0001H19.9999V14.0001Z" fill="#171414"/>
</svg>
