<svg width="current" height="current" viewBox="0 0 24 25" fill="none" xmlns="http://www.w3.org/2000/svg">
<path d="M12 3.23999H5V21.24L12 16.24L19 21.24V3.23999H12Z" fill="#D8C4E1"/>
<path d="M19 22.24C18.79 22.24 18.59 22.18 18.42 22.05L12 17.47L5.58 22.05C5.27 22.27 4.87 22.3 4.54 22.13C4.21 21.96 4 21.62 4 21.24V3.23999C4 2.68999 4.45 2.23999 5 2.23999H19C19.55 2.23999 20 2.68999 20 3.23999V21.24C20 21.62 19.79 21.96 19.46 22.13C19.32 22.2 19.16 22.24 19 22.24ZM12 15.24C12.2 15.24 12.41 15.3 12.58 15.43L18 19.3V4.23999H6V19.3L11.42 15.43C11.59 15.31 11.8 15.24 12 15.24Z" fill="#674188"/>
</svg>
