<svg width="current" height="current" viewBox="0 0 24 24" fill="none" xmlns="http://www.w3.org/2000/svg">
<g clip-path="url(#clip0_1154_381)">
<path d="M10 11H4C3.45 11 3 10.55 3 10V4C3 3.45 3.45 3 4 3H10C10.55 3 11 3.45 11 4V10C11 10.55 10.55 11 10 11ZM5 9H9V5H5V9Z" fill="black"/>
<path d="M20 21H4C3.45 21 3 20.55 3 20V14C3 13.45 3.45 13 4 13H20C20.55 13 21 13.45 21 14V20C21 20.55 20.55 21 20 21ZM5 19H19V15H5V19Z" fill="black"/>
<path d="M20 11H14C13.45 11 13 10.55 13 10V4C13 3.45 13.45 3 14 3H20C20.55 3 21 3.45 21 4V10C21 10.55 20.55 11 20 11ZM15 9H19V5H15V9Z" fill="black"/>
</g>
<defs>
<clipPath id="clip0_1154_381">
<rect width="24" height="24" fill="white"/>
</clipPath>
</defs>
</svg>
