<svg width="current" height="current" viewBox="0 0 24 24" fill="currentColor" xmlns="http://www.w3.org/2000/svg">
<path d="M13.4103 11.9999L20.7003 4.70995C21.0903 4.31995 21.0903 3.68995 20.7003 3.29995C20.3103 2.90995 19.6803 2.90995 19.2903 3.29995L12.0003 10.5899L4.71032 3.29995C4.32032 2.90995 3.69031 2.90995 3.30031 3.29995C2.91031 3.68995 2.91031 4.31995 3.30031 4.70995L10.5903 11.9999L3.30031 19.2899C2.91031 19.6799 2.91031 20.3099 3.30031 20.6999C3.50031 20.8999 3.7503 20.9899 4.0103 20.9899C4.2703 20.9899 4.52031 20.8899 4.72031 20.6999L12.0103 13.4099L19.3003 20.6999C19.5003 20.8999 19.7503 20.9899 20.0103 20.9899C20.2703 20.9899 20.5203 20.8899 20.7203 20.6999C21.1103 20.3099 21.1103 19.6799 20.7203 19.2899L13.4303 11.9999H13.4103Z" fill="current"/>
</svg>
