<svg width="24" height="25" viewBox="0 0 24 25" fill="none" xmlns="http://www.w3.org/2000/svg">
<path d="M12.11 17.92C12.29 18.34 12.97 18.22 13 18.21C13.21 18.17 14.22 17.92 14.05 16.61C13.89 15.39 13.84 14.43 13.9 13.75C13.98 12.9 14.66 12.26 15.49 12.26H19.93L18.72 7.01997C18.63 6.61997 18.38 6.31997 18.08 6.23997L8.29004 6.21997V10.65C9.20004 11.26 10.93 12.74 11.56 15.44L12.13 17.9L12.11 17.92Z" fill="#D8C4E1"/>
<path d="M20.66 6.58999C20.4 5.46999 19.6 4.59999 18.59 4.32999C18.3 4.24999 18.09 4.23999 18.02 4.23999H4C2.9 4.23999 2 5.13999 2 6.23999V10.24C2 11.34 2.9 12.24 4 12.24H7.01C7.53 12.55 9.07 13.65 9.59 15.91L10.18 18.44L10.21 18.54C10.63 19.75 11.74 20.24 12.78 20.24C12.97 20.24 13.17 20.22 13.35 20.19C14.6 19.96 16.35 18.76 16.03 16.36C15.9 15.35 15.87 14.69 15.87 14.28H20.25C21.87 14.28 22 12.9 22 12.48L20.66 6.59999V6.58999ZM15.49 12.28C14.66 12.28 13.98 12.92 13.9 13.77C13.84 14.45 13.89 15.41 14.05 16.63C14.22 17.94 13.21 18.19 13 18.23C12.97 18.23 12.29 18.35 12.11 17.94L11.54 15.48C10.92 12.78 9.18 11.3 8.27 10.69V6.25999L18.06 6.27999C18.36 6.35999 18.61 6.66999 18.7 7.05999L19.91 12.3H15.47L15.49 12.28Z" fill="#674188"/>
</svg>
