<svg width="24" height="24" viewBox="0 0 24 24" fill="none" xmlns="http://www.w3.org/2000/svg">
<path d="M22 4.98C22 4.87 21.98 4.76 21.94 4.65C21.94 4.65 21.94 4.64 21.94 4.63C21.93 4.6 21.91 4.58 21.9 4.55C21.86 4.47 21.81 4.4 21.75 4.33C21.72 4.3 21.7 4.28 21.67 4.25C21.61 4.2 21.54 4.15 21.47 4.12C21.44 4.1 21.41 4.08 21.37 4.07C21.26 4.03 21.14 4 21.02 4H3.02003C2.90003 4 2.78004 4.03 2.67004 4.07C2.63004 4.08 2.60004 4.1 2.57004 4.12C2.50004 4.16 2.43004 4.2 2.37004 4.25C2.34004 4.28 2.31004 4.3 2.29004 4.33C2.23004 4.4 2.18004 4.47 2.14004 4.55C2.13004 4.58 2.11004 4.6 2.10004 4.62C2.10004 4.62 2.10004 4.63 2.10004 4.64C2.06004 4.75 2.04004 4.86 2.04004 4.97V4.99V18.99C2.04004 19.54 2.49004 19.99 3.04004 19.99H21.04C21.59 19.99 22.04 19.54 22.04 18.99V4.99V4.97L22 4.98ZM18.38 6L12.01 11.66L5.64004 6H18.38ZM4.01004 18V7.23L11.35 13.75C11.54 13.92 11.78 14 12.01 14C12.24 14 12.48 13.92 12.67 13.75L20.01 7.23V18H4.01004Z" fill="#171414"/>
</svg>
