<svg width="current" height="current" viewBox="0 0 24 24" fill="none" xmlns="http://www.w3.org/2000/svg">
<path d="M20 6H4C3.45 6 3 5.55 3 5C3 4.45 3.45 4 4 4H20C20.55 4 21 4.45 21 5C21 5.55 20.55 6 20 6Z" fill="current"/>
<path d="M7 7C8.10457 7 9 6.10457 9 5C9 3.89543 8.10457 3 7 3C5.89543 3 5 3.89543 5 5C5 6.10457 5.89543 7 7 7Z" fill="current"/>
<path d="M20 13H4C3.45 13 3 12.55 3 12C3 11.45 3.45 11 4 11H20C20.55 11 21 11.45 21 12C21 12.55 20.55 13 20 13Z" fill="current"/>
<path d="M12 14C13.1046 14 14 13.1046 14 12C14 10.8954 13.1046 10 12 10C10.8954 10 10 10.8954 10 12C10 13.1046 10.8954 14 12 14Z" fill="current"/>
<path d="M20 20H4C3.45 20 3 19.55 3 19C3 18.45 3.45 18 4 18H20C20.55 18 21 18.45 21 19C21 19.55 20.55 20 20 20Z" fill="current"/>
<path d="M17 21C18.1046 21 19 20.1046 19 19C19 17.8954 18.1046 17 17 17C15.8954 17 15 17.8954 15 19C15 20.1046 15.8954 21 17 21Z" fill="current"/>
</svg>
