<svg width="24" height="24" viewBox="0 0 24 24" fill="none" xmlns="http://www.w3.org/2000/svg">
<path d="M21.8602 12.48C21.8602 12.48 21.9002 12.43 21.9102 12.4C21.9602 12.28 22.0002 12.14 22.0002 12C22.0002 11.86 21.9702 11.72 21.9102 11.6C21.9002 11.57 21.8702 11.55 21.8602 11.52C21.8102 11.43 21.7502 11.34 21.6802 11.27C21.6802 11.27 21.6802 11.25 21.6602 11.25L12.6602 3.24996C12.2502 2.87996 11.6202 2.91996 11.2502 3.32996C10.8802 3.73996 10.9202 4.36996 11.3302 4.73996L18.3602 10.99H2.99023C2.44023 10.99 1.99023 11.44 1.99023 11.99C1.99023 12.54 2.44023 12.99 2.99023 12.99H18.3602L11.3302 19.24C10.9202 19.61 10.8802 20.24 11.2502 20.65C11.4502 20.87 11.7202 20.99 12.0002 20.99C12.2402 20.99 12.4702 20.91 12.6602 20.74L21.6602 12.74C21.6602 12.74 21.6602 12.72 21.6802 12.72C21.7602 12.65 21.8102 12.56 21.8602 12.47V12.48Z" fill="#171414"/>
</svg>
