<svg width="current" height="current"  viewBox="0 0 24 24" fill="none" xmlns="http://www.w3.org/2000/svg">
<path d="M21.6601 11.25L12.6601 3.25C12.2801 2.91 11.7101 2.91 11.3301 3.25L2.33008 11.25C2.02008 11.53 1.91007 11.96 2.06007 12.35C2.21007 12.74 2.58008 12.99 2.99008 12.99H4.99008V19.99C4.99008 20.54 5.44008 20.99 5.99008 20.99H17.9901C18.5401 20.99 18.9901 20.54 18.9901 19.99V12.99H20.9901C21.4101 12.99 21.7801 12.73 21.9201 12.35C22.0601 11.97 21.9601 11.52 21.6501 11.25H21.6601ZM12.0001 5.33L18.3701 10.99H5.63008L12.0001 5.33ZM17.0001 18.99H14.0001V15.99C14.0001 15.44 13.5501 14.99 13.0001 14.99H11.0001C10.4501 14.99 10.0001 15.44 10.0001 15.99V18.99H7.00007V12.99H17.0001V18.99Z" fill="#171414"/>
</svg>
