<svg width="current" height="current" viewBox="0 0 24 24" fill="none" xmlns="http://www.w3.org/2000/svg">
<path d="M18 12H6V20H18V12Z" fill="#D8C4E1"/>
<path d="M21.6601 11.26L12.6601 3.26C12.2801 2.92 11.7101 2.92 11.3301 3.26L2.33008 11.26C2.02008 11.54 1.91007 11.97 2.06007 12.36C2.21007 12.75 2.58007 13 2.99007 13H4.99007V20C4.99007 20.55 5.44007 21 5.99007 21H17.9901C18.5401 21 18.9901 20.55 18.9901 20V13H20.9901C21.4101 13 21.7801 12.74 21.9201 12.36C22.0601 11.98 21.9601 11.53 21.6501 11.26H21.6601ZM17.0001 19.01H14.0001V16.01C14.0001 15.46 13.5501 15.01 13.0001 15.01H11.0001C10.4501 15.01 10.0001 15.46 10.0001 16.01V19.01H7.00007V13.01H17.0001V19.01Z" fill="#674188"/>
</svg>
