<svg width="current" height="current"  viewBox="0 0 24 24" fill="none" xmlns="http://www.w3.org/2000/svg">
<path d="M17 2H7C4.24 2 2 4.24 2 7V16C2 16.55 2.45 17 3 17H10V21C10 21.55 10.45 22 11 22H13C13.55 22 14 21.55 14 21V17H21C21.55 17 22 16.55 22 16V7C22 4.24 19.76 2 17 2ZM6 15H4V7C4 5.7 4.84 4.6 6 4.18C6.31 4.07 6.65 4 7 4H8C9.65 4 11 5.35 11 7V15H6ZM20 15H13V7C13 5.87 12.61 4.84 11.97 4H17C18.65 4 20 5.35 20 7V15Z" fill="#171414"/>
<path d="M18.4501 5.10995C17.9501 4.85995 17.3601 5.05995 17.1101 5.55995L16.1101 7.55995C15.8601 8.04995 16.0601 8.64995 16.5601 8.89995C16.7001 8.96995 16.8601 9.00994 17.0101 9.00994C17.3801 9.00994 17.7301 8.80995 17.9101 8.45995L18.9101 6.45995C19.1601 5.96995 18.9601 5.36995 18.4601 5.11995L18.4501 5.10995Z" fill="#171414"/>
</svg>
