<svg width="24" height="24" viewBox="0 0 24 24" fill="none" xmlns="http://www.w3.org/2000/svg">
<path d="M21 11C20.45 11 20 11.45 20 12C20 16.41 16.41 20 12 20C7.58998 20 3.99998 16.41 3.99998 12C3.99998 7.59 7.58998 4 12 4C13.53 4 14.99 4.43 16.24 5.22L14.66 6.8C14.37 7.09 14.29 7.52 14.44 7.89C14.59 8.26 14.96 8.50999 15.36 8.50999H19.86C20.41 8.50999 20.86 8.06 20.86 7.50999V3.00999C20.86 2.60999 20.62 2.24 20.24 2.09C19.87 1.93 19.44 2.02 19.15 2.31L17.66 3.8C16.01 2.66 14.05 2.02 11.98 2.02C6.46998 2.02 1.97998 6.51 1.97998 12.02C1.97998 17.53 6.46998 22.02 11.98 22.02C17.49 22.02 21.98 17.53 21.98 12.02C21.98 11.47 21.53 11.02 20.98 11.02L21 11Z" fill="#171414"/>
</svg>
