<svg width="24" height="24" viewBox="0 0 24 24" fill="none" xmlns="http://www.w3.org/2000/svg">
<path d="M14.3698 22C13.7198 22 13.0998 21.71 12.6498 21.19L12.1998 20.65C12.0598 20.49 11.9398 20.48 11.7998 20.65L11.3498 21.19C10.7498 21.9 9.82977 22.18 8.94977 21.9C8.05977 21.62 7.42978 20.82 7.34978 19.88L7.28976 19.17C7.27976 19.02 7.19977 18.95 7.14977 18.91C7.08977 18.86 7.01977 18.85 6.94977 18.87L6.27977 19.03C5.39977 19.24 4.50978 18.91 3.95978 18.17C3.38978 17.41 3.32977 16.39 3.79977 15.57L4.14977 14.95C4.19976 14.86 4.20976 14.74 4.17976 14.64C4.15976 14.59 4.11977 14.49 4.00977 14.44L3.37978 14.16C2.53978 13.78 2.00977 12.96 2.00977 12.02C2.00977 11.08 2.52978 10.26 3.37978 9.87996L4.00977 9.59996C4.10977 9.54996 4.15976 9.45996 4.17976 9.39996C4.20976 9.29996 4.19976 9.17996 4.14977 9.08996L3.79977 8.46996C3.32977 7.64996 3.39978 6.61996 3.95978 5.86996C4.50978 5.13996 5.39977 4.80996 6.27977 5.00996L6.94977 5.16996C7.01977 5.18996 7.08977 5.16996 7.14977 5.12996C7.19977 5.09996 7.26976 5.01996 7.28976 4.86996L7.34978 4.15996C7.43978 3.20996 8.05977 2.41996 8.94977 2.13996C9.82977 1.85996 10.7498 2.13996 11.3498 2.84996L11.7998 3.38996C11.9398 3.54996 12.0598 3.55996 12.1998 3.38996L12.6498 2.84996C13.2498 2.13996 14.1698 1.85996 15.0498 2.13996C15.9398 2.41996 16.5698 3.21996 16.6498 4.15996L16.7098 4.86996C16.7198 5.01996 16.7998 5.08996 16.8498 5.12996C16.9098 5.16996 16.9798 5.18996 17.0498 5.16996L17.7198 5.00996C18.5998 4.79996 19.4898 5.12996 20.0398 5.86996C20.6098 6.62996 20.6698 7.64996 20.1998 8.46996L19.8498 9.08996C19.7998 9.17996 19.7898 9.29996 19.8198 9.39996C19.8398 9.44996 19.8798 9.54996 19.9898 9.59996L20.6198 9.87996C21.4598 10.26 21.9898 11.08 21.9898 12.02C21.9898 12.96 21.4698 13.78 20.6198 14.16L19.9898 14.44C19.8898 14.49 19.8398 14.58 19.8198 14.64C19.7898 14.74 19.7998 14.86 19.8498 14.95L20.1998 15.57C20.6698 16.39 20.5998 17.42 20.0398 18.17C19.4898 18.9 18.5998 19.23 17.7198 19.03L17.0498 18.87C16.9798 18.86 16.9098 18.87 16.8498 18.91C16.7998 18.94 16.7298 19.02 16.7098 19.17L16.6498 19.88C16.5598 20.83 15.9398 21.62 15.0498 21.9C14.8198 21.97 14.5898 22.01 14.3598 22.01L14.3698 22ZM11.9998 18.55C12.6698 18.55 13.2898 18.85 13.7298 19.36L14.1798 19.9C14.1798 19.9 14.2998 20.04 14.4498 19.99C14.5198 19.97 14.6498 19.9 14.6598 19.69L14.7198 18.98C14.7798 18.3 15.1298 17.68 15.6798 17.28C16.2098 16.9 16.8798 16.77 17.5098 16.91L18.1798 17.07C18.1798 17.07 18.3398 17.11 18.4498 16.96C18.4898 16.91 18.5898 16.74 18.4698 16.54L18.1198 15.93C17.7898 15.35 17.7198 14.65 17.9298 14.01C18.1298 13.39 18.5898 12.87 19.1798 12.61L19.8098 12.33C19.9798 12.25 19.9998 12.08 19.9998 12.01C19.9998 11.94 19.9798 11.77 19.8098 11.69L19.1798 11.41C18.5898 11.14 18.1398 10.63 17.9298 10.01C17.7198 9.36996 17.7898 8.66996 18.1198 8.08996L18.4698 7.46996C18.5798 7.26996 18.4698 7.09996 18.4398 7.04996C18.3298 6.90996 18.2098 6.92996 18.1698 6.93996L17.4998 7.09996C16.8698 7.24996 16.1998 7.10996 15.6698 6.72996C15.1198 6.32996 14.7698 5.70996 14.7098 5.02996L14.6498 4.31996C14.6298 4.10996 14.5098 4.04996 14.4398 4.01996C14.2898 3.96996 14.1998 4.07996 14.1698 4.10996L13.7198 4.64996C12.8498 5.67996 11.1298 5.67996 10.2598 4.64996L9.80977 4.10996C9.80977 4.10996 9.68976 3.97996 9.53976 4.01996C9.46976 4.03996 9.33977 4.10996 9.32977 4.31996L9.26978 5.02996C9.20978 5.70996 8.85977 6.32996 8.30977 6.72996C7.77977 7.10996 7.11977 7.24996 6.47977 7.09996L5.80977 6.93996C5.80977 6.93996 5.64976 6.89996 5.53976 7.04996C5.49976 7.09996 5.39978 7.26996 5.51978 7.46996L5.86977 8.07996C6.19977 8.65996 6.26977 9.35996 6.05977 9.99996C5.85977 10.62 5.39977 11.14 4.80977 11.4L4.17976 11.68C4.00976 11.76 3.98978 11.93 3.98978 12C3.98978 12.07 4.00976 12.24 4.17976 12.32L4.80977 12.6C5.39977 12.87 5.84977 13.38 6.05977 14C6.26977 14.64 6.19977 15.34 5.86977 15.92L5.51978 16.54C5.40978 16.74 5.51977 16.91 5.54977 16.96C5.65977 17.1 5.77978 17.08 5.81978 17.07L6.48978 16.91C7.11978 16.76 7.78978 16.9 8.31978 17.28C8.86978 17.68 9.21977 18.3 9.27977 18.98L9.33977 19.69C9.35977 19.9 9.47977 19.96 9.54977 19.99C9.69977 20.04 9.78978 19.94 9.81978 19.9L10.2698 19.36C10.7098 18.84 11.3398 18.55 11.9998 18.55Z" fill="#171414"/>
<path d="M12 17C9.24 17 7 14.76 7 12C7 9.24 9.24 7 12 7C14.76 7 17 9.24 17 12C17 14.76 14.76 17 12 17ZM12 9C10.35 9 9 10.35 9 12C9 13.65 10.35 15 12 15C13.65 15 15 13.65 15 12C15 10.35 13.65 9 12 9Z" fill="#171414"/>
</svg>
