<svg width="24" height="24" viewBox="0 0 24 24" fill="none" xmlns="http://www.w3.org/2000/svg">
<path d="M17.5599 21.56C17.3999 21.56 17.2399 21.52 17.0899 21.44L11.9899 18.76L6.88991 21.44C6.54991 21.62 6.1499 21.59 5.8399 21.36C5.5299 21.14 5.37991 20.76 5.43991 20.38L6.40991 14.7L2.2899 10.68C2.0199 10.41 1.9199 10.02 2.0399 9.65999C2.1599 9.29999 2.46991 9.02999 2.84991 8.97999L8.54991 8.14998L11.0999 2.98998C11.4399 2.30998 12.5599 2.30998 12.8899 2.98998L15.4399 8.14998L21.1399 8.97999C21.5199 9.02999 21.8299 9.29999 21.9499 9.65999C22.0699 10.02 21.9699 10.42 21.6999 10.68L17.5799 14.7L18.5499 20.38C18.6099 20.76 18.4599 21.13 18.1499 21.36C17.9799 21.49 17.7699 21.55 17.5599 21.55V21.56ZM11.9999 16.64C12.1599 16.64 12.3199 16.68 12.4699 16.76L16.2399 18.74L15.5199 14.54C15.4599 14.22 15.5699 13.88 15.8099 13.66L18.8599 10.69L14.6499 10.08C14.3199 10.03 14.0399 9.82998 13.8999 9.52998L12.0199 5.70998L10.1399 9.52998C9.98991 9.81998 9.70991 10.03 9.38991 10.08L5.1799 10.69L8.2299 13.66C8.4699 13.89 8.56991 14.22 8.51991 14.54L7.79991 18.74L11.5699 16.76C11.7199 16.68 11.8799 16.64 12.0399 16.64H11.9999Z" fill="#171414"/>
</svg>
