<svg width="24" height="24" viewBox="0 0 24 24" fill="none" xmlns="http://www.w3.org/2000/svg">
<path d="M12 22C6.49 22 2 17.51 2 12C2 6.49 6.49 2 12 2C17.51 2 22 6.49 22 12C22 17.51 17.51 22 12 22ZM12 4C7.59 4 4 7.59 4 12C4 16.41 7.59 20 12 20C16.41 20 20 16.41 20 12C20 7.59 16.41 4 12 4Z" fill="#171414"/>
<path d="M15 16C14.74 16 14.49 15.9 14.29 15.71L11.29 12.71C11.1 12.52 11 12.27 11 12V7C11 6.45 11.45 6 12 6C12.55 6 13 6.45 13 7V11.59L15.71 14.3C16.1 14.69 16.1 15.32 15.71 15.71C15.51 15.91 15.26 16 15 16Z" fill="#171414"/>
</svg>
