<svg width="24" height="24" viewBox="0 0 24 24" fill="none" xmlns="http://www.w3.org/2000/svg">
<path d="M18.5198 13.35C20.6598 12.08 22.0098 10.17 22.0098 8C22.0098 7.45 21.5598 7 21.0098 7C20.4598 7 20.0098 7.45 20.0098 8C20.0098 10.71 16.3498 13 12.0098 13C7.66977 13 4.00977 10.71 4.00977 8C4.00977 7.45 3.55977 7 3.00977 7C2.45977 7 2.00977 7.45 2.00977 8C2.00977 10.17 3.35977 12.08 5.50977 13.35L3.20976 16.39C2.87976 16.83 2.95977 17.46 3.39977 17.79C3.57977 17.93 3.78976 17.99 3.99976 17.99C4.29976 17.99 4.59977 17.85 4.79977 17.59L7.35976 14.21C8.45976 14.61 9.68977 14.87 11.0098 14.96V17.99C11.0098 18.54 11.4598 18.99 12.0098 18.99C12.5598 18.99 13.0098 18.54 13.0098 17.99V14.96C14.3298 14.87 15.5598 14.61 16.6698 14.21L19.2298 17.6C19.4298 17.86 19.7298 18 20.0298 18C20.2398 18 20.4498 17.93 20.6298 17.8C21.0698 17.47 21.1598 16.84 20.8198 16.4L18.5098 13.35H18.5198Z" fill="#171414"/>
</svg>
