<svg width="24" height="24" viewBox="0 0 24 24" fill="none" xmlns="http://www.w3.org/2000/svg">
<path d="M12 5C6.39 5 2 8.08 2 12C2 15.92 6.39 19 12 19C17.61 19 22 15.92 22 12C22 8.08 17.61 5 12 5ZM12 16C9.79 16 8 14.21 8 12C8 9.79 9.79 8 12 8C14.21 8 16 9.79 16 12C16 14.21 14.21 16 12 16ZM4 12C4 10.27 5.5 8.71 7.71 7.81C6.65 8.89 6 10.37 6 12C6 13.63 6.66 15.11 7.71 16.19C5.5 15.29 4 13.73 4 12ZM16.29 16.19C17.35 15.11 18 13.63 18 12C18 10.37 17.34 8.89 16.29 7.81C18.5 8.71 20 10.27 20 12C20 13.73 18.5 15.29 16.29 16.19Z" fill="#171414"/>
</svg>
