<svg width="24" height="24" viewBox="0 0 24 24" fill="none" xmlns="http://www.w3.org/2000/svg">
<path d="M6.71012 17.29C6.78012 17.29 6.84012 17.29 6.91012 17.27L10.6601 16.52C10.6601 16.52 10.7401 16.49 10.7801 16.48C10.8101 16.48 10.8401 16.46 10.8601 16.45C10.9701 16.4 11.0601 16.34 11.1501 16.26C11.1501 16.26 11.1601 16.26 11.1701 16.25L19.4201 7.99999C19.8101 7.60999 19.8101 6.97999 19.4201 6.58999L16.4201 3.58999C16.0301 3.19999 15.4001 3.19999 15.0101 3.58999L6.76012 11.84C6.76012 11.84 6.76012 11.85 6.75012 11.86C6.67012 11.94 6.61012 12.04 6.56012 12.15C6.55012 12.18 6.54012 12.21 6.53012 12.23C6.52012 12.27 6.50012 12.31 6.49012 12.35L5.74012 16.1C5.67012 16.43 5.78012 16.77 6.01012 17C6.20012 17.19 6.45012 17.29 6.72012 17.29H6.71012ZM15.7101 5.69999L17.3001 7.28999L10.4601 14.13L8.87012 12.54L15.7101 5.69999Z" fill="#171414"/>
<path d="M19 19H5C4.45 19 4 19.45 4 20C4 20.55 4.45 21 5 21H19C19.55 21 20 20.55 20 20C20 19.45 19.55 19 19 19Z" fill="#171414"/>
</svg>
