<svg width="24" height="24" viewBox="0 0 24 24" fill="none" xmlns="http://www.w3.org/2000/svg">
<path d="M12.9956 3.33134L5.17041 4.99463L7.04162 13.798L14.8668 12.1347L12.9956 3.33134Z" fill="white"/>
<path d="M6.44 10.87H3L7.5 20.87H21V10.87H14.62H6.44Z" fill="#D8C4E1"/>
<path d="M19.9997 9.87V4.87C19.9997 4.32 19.5497 3.87 18.9997 3.87H14.1597L15.4397 9.87H20.0097H19.9997Z" fill="#674188"/>
<path d="M6.33983 5.57005L10.0198 4.79005L12.2098 4.32005L13.3898 9.87005H15.4398L14.1598 3.87005L13.9598 2.93005C13.8398 2.39005 13.3098 2.05005 12.7698 2.16005L4.94983 3.82005C4.40983 3.94005 4.06983 4.47005 4.17983 5.01005L5.20983 9.87005H7.24983L6.33983 5.57005Z" fill="#674188"/>
<path d="M20.9999 9.87H2.99987C2.65987 9.87 2.33987 10.04 2.15987 10.33C1.97987 10.62 1.94987 10.97 2.08987 11.28L6.58987 21.28C6.74987 21.64 7.10987 21.87 7.49987 21.87H20.9999C21.5499 21.87 21.9999 21.42 21.9999 20.87V10.87C21.9999 10.32 21.5499 9.87 20.9999 9.87ZM19.9999 13.87V19.87H8.14987L4.54987 11.87H19.9999V13.87Z" fill="#674188"/>
</svg>
