<svg width="24" height="24" viewBox="0 0 24 24" fill="none" xmlns="http://www.w3.org/2000/svg">
<path d="M21.0002 11H5.63023L12.6602 4.74997C13.0702 4.37997 13.1102 3.74997 12.7402 3.33997C12.3702 2.92997 11.7402 2.88997 11.3302 3.25997L2.34023 11.25C2.34023 11.25 2.34023 11.27 2.32023 11.27C2.25023 11.34 2.19023 11.42 2.14023 11.51C2.12023 11.54 2.10023 11.56 2.08023 11.6C2.03023 11.72 1.99023 11.86 1.99023 12C1.99023 12.14 2.02023 12.28 2.08023 12.4C2.09023 12.43 2.12023 12.45 2.14023 12.48C2.19023 12.57 2.24023 12.65 2.32023 12.72C2.32023 12.72 2.32023 12.74 2.34023 12.74L11.3402 20.74C11.5302 20.91 11.7702 20.99 12.0002 20.99C12.2802 20.99 12.5502 20.88 12.7502 20.65C13.1202 20.24 13.0802 19.61 12.6702 19.24L5.64023 12.99H21.0102C21.5602 12.99 22.0102 12.54 22.0102 11.99C22.0102 11.44 21.5602 10.99 21.0102 10.99L21.0002 11Z" fill="#171414"/>
</svg>
