<svg width="24" height="24" viewBox="0 0 24 24" fill="none" xmlns="http://www.w3.org/2000/svg">
<path d="M20.66 7.35C20.4 6.23 19.6 5.36 18.59 5.09C18.3 5.01 18.09 5 18.02 5H4C2.9 5 2 5.9 2 7V11C2 12.1 2.9 13 4 13H7.00999C7.52999 13.31 9.07 14.41 9.59 16.67L10.18 19.2L10.21 19.3C10.63 20.51 11.74 21 12.78 21C12.97 21 13.17 20.98 13.35 20.95C14.6 20.72 16.35 19.52 16.03 17.12C15.9 16.11 15.87 15.45 15.87 15.04H20.25C21.87 15.04 22 13.66 22 13.24L20.66 7.36V7.35ZM15.49 13.04C14.66 13.04 13.98 13.68 13.9 14.53C13.84 15.21 13.89 16.17 14.05 17.39C14.22 18.7 13.21 18.95 13 18.99C12.97 18.99 12.29 19.11 12.11 18.7L11.54 16.24C10.92 13.54 9.18 12.06 8.27 11.45V7.02L18.06 7.04C18.36 7.12 18.61 7.43 18.7 7.82L19.91 13.06H15.47L15.49 13.04Z" fill="#171414"/>
</svg>
