<svg width="24" height="24" viewBox="0 0 24 24" fill="none" xmlns="http://www.w3.org/2000/svg">
<path d="M12 21C11.85 21 11.71 20.97 11.57 20.9C11.18 20.72 2 16.28 2 9.33C2 5.84 4.69 3 8 3C9.5 3 10.91 3.58 12 4.63C13.09 3.58 14.5 3 16 3C19.31 3 22 5.84 22 9.33C22 16.28 12.82 20.72 12.43 20.9C12.29 20.96 12.15 21 12 21ZM8 5C5.79 5 4 6.94 4 9.33C4 14.28 10.28 17.96 12 18.87C13.72 17.95 20 14.26 20 9.33C20 6.94 18.21 5 16 5C14.75 5 13.59 5.63 12.82 6.74C12.45 7.28 11.55 7.28 11.18 6.74C10.41 5.64 9.25 5 8 5Z" fill="#171414"/>
</svg>
