<svg width="current" height="current" viewBox="0 0 24 24" fill="none" xmlns="http://www.w3.org/2000/svg">
<g clip-path="url(#clip0_1154_462)">
<path d="M20.66 9.24994L12.66 2.24994C12.28 1.91994 11.72 1.91994 11.34 2.24994L3.34 9.24994C3.12 9.43994 3 9.70994 3 9.99994V20.9999C3 21.5499 3.45 21.9999 4 21.9999H20C20.55 21.9999 21 21.5499 21 20.9999V9.99994C21 9.70994 20.88 9.43994 20.66 9.24994ZM13 19.9999H11V15.9999H13V19.9999ZM19 19.9999H15V14.9999C15 14.4499 14.55 13.9999 14 13.9999H10C9.45 13.9999 9 14.4499 9 14.9999V19.9999H5V10.4499L12 4.32994L19 10.4499V19.9999Z" fill="black"/>
<path d="M13 16H11V20H13V16Z" fill="black"/>
</g>
<defs>
<clipPath id="clip0_1154_462">
<rect width="24" height="24" fill="white"/>
</clipPath>
</defs>
</svg>
