<svg width="24" height="25" viewBox="0 0 24 25" fill="none" xmlns="http://www.w3.org/2000/svg">
<path d="M8.27976 18.2399H18.0198C18.3698 18.1399 18.6198 17.8299 18.7098 17.4399L19.9198 12.1999H15.4798C14.6498 12.1999 13.9698 11.5599 13.8898 10.7099C13.8298 10.0299 13.8798 9.06989 14.0398 7.85989C14.2098 6.54989 13.1998 6.29989 12.9898 6.25989C12.9598 6.25989 12.2898 6.13989 12.0998 6.54989L11.5298 9.00989C10.9098 11.7099 9.16977 13.1899 8.25977 13.7999V18.2399H8.27976Z" fill="#D8C4E1"/>
<path d="M20.25 10.1999H15.87C15.87 9.77994 15.89 9.12994 16.03 8.11994C16.35 5.71993 14.6 4.51994 13.35 4.28994C12.18 4.07994 10.7 4.50993 10.21 5.93993L9.59 8.56994C9.06 10.8399 7.52 11.9399 7.01 12.2399H4C2.9 12.2399 2 13.1399 2 14.2399V18.2399C2 19.3399 2.9 20.2399 4 20.2399H18.02C18.1 20.2399 18.3 20.2399 18.59 20.1499C19.61 19.8799 20.4 19.0099 20.66 17.8899L21.97 12.2299L22 11.9999C22 10.8299 21.1 10.1999 20.25 10.1999ZM18.71 17.4399C18.62 17.8399 18.37 18.1399 18.02 18.2399H8.28V13.7999C9.19 13.1899 10.92 11.7099 11.55 9.00993L12.12 6.54994C12.3 6.12994 12.98 6.24993 13.01 6.25993C13.22 6.29993 14.23 6.54994 14.06 7.85994C13.9 9.07994 13.85 10.0399 13.91 10.7099C13.99 11.5599 14.67 12.1999 15.5 12.1999H19.94L18.73 17.4399H18.71Z" fill="#674188"/>
</svg>
