<svg width="24" height="24" viewBox="0 0 24 24" fill="none" xmlns="http://www.w3.org/2000/svg">
<path d="M20.25 9.95994H15.87C15.87 9.53994 15.89 8.88994 16.03 7.87994C16.35 5.47994 14.6 4.27995 13.35 4.04995C12.18 3.83995 10.7 4.26994 10.21 5.69994L9.59 8.32995C9.06 10.5999 7.52 11.6999 7.01 11.9999H4C2.9 11.9999 2 12.8999 2 13.9999V17.9999C2 19.0999 2.9 19.9999 4 19.9999H18.02C18.1 19.9999 18.3 19.9999 18.59 19.9099C19.61 19.6399 20.4 18.7699 20.66 17.6499L21.97 11.9899L22 11.7599C22 10.5899 21.1 9.95994 20.25 9.95994ZM18.71 17.1999C18.62 17.5999 18.37 17.8999 18.02 17.9999H8.28V13.5599C9.19 12.9499 10.92 11.4699 11.55 8.76994L12.12 6.30994C12.3 5.88994 12.98 6.00994 13.01 6.01994C13.22 6.05994 14.23 6.30995 14.06 7.61995C13.9 8.83995 13.85 9.79995 13.91 10.4699C13.99 11.3199 14.67 11.9599 15.5 11.9599H19.94L18.73 17.1999H18.71Z" fill="#171414"/>
</svg>
