<svg width="24" height="24" viewBox="0 0 24 24" fill="none" xmlns="http://www.w3.org/2000/svg">
<g id="Name=logout, State=off">
<path id="Vector" d="M19.9102 13.6C19.9102 13.6 19.8702 13.55 19.8602 13.52C19.8102 13.43 19.7502 13.34 19.6802 13.27C19.6802 13.27 19.6802 13.25 19.6602 13.25L16.6602 10.58C16.2502 10.21 15.6102 10.25 15.2502 10.66C14.8802 11.07 14.9202 11.7 15.3302 12.07L16.3602 12.99H11.9902C11.4402 12.99 10.9902 13.44 10.9902 13.99C10.9902 14.54 11.4402 14.99 11.9902 14.99H16.3602L15.3302 15.91C14.9202 16.28 14.8802 16.91 15.2502 17.32C15.4502 17.54 15.7202 17.66 16.0002 17.66C16.2402 17.66 16.4702 17.58 16.6602 17.41L19.6602 14.74C19.6602 14.74 19.6602 14.72 19.6802 14.72C19.7602 14.65 19.8102 14.56 19.8602 14.47C19.8802 14.44 19.9002 14.42 19.9102 14.39C19.9602 14.27 20.0002 14.13 20.0002 13.99C20.0002 13.85 19.9702 13.71 19.9102 13.59V13.6Z" fill="#171414"/>
<path id="Vector_2" d="M16 19H6V5H15V8C15 8.55 15.45 9 16 9C16.55 9 17 8.55 17 8V4C17 3.45 16.55 3 16 3H5C4.45 3 4 3.45 4 4V20C4 20.55 4.45 21 5 21H16C16.55 21 17 20.55 17 20C17 19.45 16.55 19 16 19Z" fill="#171414"/>
</g>
</svg>
