<svg width="24" height="24" viewBox="0 0 24 24" fill="none" xmlns="http://www.w3.org/2000/svg">
<path d="M20 9H19C19 5.14 15.86 2 12 2C8.14 2 5 5.14 5 9H4C3.45 9 3 9.45 3 10V16C3 18.76 5.24 21 8 21H16C18.76 21 21 18.76 21 16V10C21 9.45 20.55 9 20 9ZM12 4C14.76 4 17 6.24 17 9H7C7 6.24 9.24 4 12 4ZM19 15V16C19 17.65 17.65 19 16 19H8C6.35 19 5 17.65 5 16V11H19V15Z" fill="#171414"/>
<path d="M12 13C11.45 13 11 13.45 11 14V16C11 16.55 11.45 17 12 17C12.55 17 13 16.55 13 16V14C13 13.45 12.55 13 12 13Z" fill="#171414"/>
</svg>
