<svg width="current" height="current" viewBox="0 0 24 24" fill="none" xmlns="http://www.w3.org/2000/svg">
<path d="M12 13C9.24 13 7 10.76 7 8C7 5.24 9.24 3 12 3C14.76 3 17 5.24 17 8C17 10.76 14.76 13 12 13ZM12 5C10.35 5 9 6.35 9 8C9 9.65 10.35 11 12 11C13.65 11 15 9.65 15 8C15 6.35 13.65 5 12 5Z" fill="#171414"/>
<path d="M20 21H4C3.45 21 3 20.55 3 20C3 16.64 6.95 14 12 14C17.05 14 21 16.64 21 20C21 20.55 20.55 21 20 21ZM5.23 19H18.77C17.97 17.3 15.19 16 12 16C8.81 16 6.03 17.3 5.23 19Z" fill="#171414"/>
</svg>
