<svg width="24" height="24" viewBox="0 0 24 24" fill="current" xmlns="http://www.w3.org/2000/svg">
<path d="M12 22C6.49 22 2 17.51 2 12C2 6.49 6.49 2 12 2C17.51 2 22 6.49 22 12C22 17.51 17.51 22 12 22ZM12 4C7.59 4 4 7.59 4 12C4 16.41 7.59 20 12 20C16.41 20 20 16.41 20 12C20 7.59 16.41 4 12 4Z" fill="current"/>
<path d="M12 18C12.5523 18 13 17.5299 13 16.95C13 16.3701 12.5523 15.9 12 15.9C11.4477 15.9 11 16.3701 11 16.95C11 17.5299 11.4477 18 12 18Z" fill="current"/>
<path d="M12 15.33C11.45 15.33 11 14.88 11 14.33V12.5C11 11.95 11.45 11.5 12 11.5C13.1 11.5 14 10.71 14 9.75C14 8.79 13.1 8 12 8C10.9 8 10 8.79 10 9.75C10 10.3 9.55 10.75 9 10.75C8.45 10.75 8 10.3 8 9.75C8 7.68 9.79 6 12 6C14.21 6 16 7.68 16 9.75C16 11.49 14.72 12.96 13 13.38V14.33C13 14.88 12.55 15.33 12 15.33Z" fill="current"/>
</svg>
