<svg width="current" height="current" viewBox="0 0 24 24" fill="currentColor" xmlns="http://www.w3.org/2000/svg">
<path d="M21.71 20.29L16.31 14.89C17.36 13.53 18 11.84 18 9.98999C18 5.57999 14.41 1.98999 10 1.98999C5.59 1.98999 2 5.57999 2 9.98999C2 14.4 5.59 17.99 10 17.99C11.85 17.99 13.54 17.36 14.9 16.3L20.3 21.7C20.5 21.9 20.75 21.99 21.01 21.99C21.27 21.99 21.52 21.89 21.72 21.7C22.11 21.31 22.11 20.68 21.72 20.29H21.71ZM4 9.99999C4 6.68999 6.69 3.99999 10 3.99999C13.31 3.99999 16 6.68999 16 9.99999C16 13.31 13.31 16 10 16C6.69 16 4 13.31 4 9.99999Z" fill="currentColor"/>
</svg>
