<svg width="24" height="25" viewBox="0 0 24 25" fill="none" xmlns="http://www.w3.org/2000/svg">
<path d="M12 3.6499L14.78 9.2899L21 10.1899L16.5 14.5799L17.56 20.7699L12 17.8499L6.44 20.7699L7.5 14.5799L3 10.1899L9.22 9.2899L12 3.6499Z" fill="#674188"/>
<path d="M17.5599 21.7699C17.3999 21.7699 17.2399 21.7299 17.0899 21.6499L11.9899 18.9699L6.88991 21.6499C6.54991 21.8299 6.1499 21.7999 5.8399 21.5699C5.5299 21.3499 5.37991 20.9699 5.43991 20.5899L6.40991 14.9099L2.2899 10.8899C2.0199 10.6199 1.9199 10.2299 2.0399 9.86994C2.1599 9.50994 2.46991 9.23994 2.84991 9.18994L8.54991 8.35994L11.0999 3.19994C11.4399 2.51994 12.5599 2.51994 12.8899 3.19994L15.4399 8.35994L21.1399 9.18994C21.5199 9.23994 21.8299 9.50994 21.9499 9.86994C22.0699 10.2299 21.9699 10.6299 21.6999 10.8899L17.5799 14.9099L18.5499 20.5899C18.6099 20.9699 18.4599 21.3399 18.1499 21.5699C17.9799 21.6999 17.7699 21.7599 17.5599 21.7599V21.7699ZM11.9999 16.8499C12.1599 16.8499 12.3199 16.8899 12.4699 16.9699L16.2399 18.9499L15.5199 14.7499C15.4599 14.4299 15.5699 14.0899 15.8099 13.8699L18.8599 10.8999L14.6499 10.2899C14.3199 10.2399 14.0399 10.0399 13.8999 9.73994L12.0199 5.91994L10.1399 9.73994C9.98991 10.0299 9.70991 10.2399 9.38991 10.2899L5.1799 10.8999L8.2299 13.8699C8.4699 14.0999 8.56991 14.4299 8.51991 14.7499L7.79991 18.9499L11.5699 16.9699C11.7199 16.8899 11.8799 16.8499 12.0399 16.8499H11.9999Z" fill="#674188"/>
</svg>
